<svg width="73" height="71" viewBox="0 0 73 71" fill="none" xmlns="http://www.w3.org/2000/svg">
<path d="M55.7708 70.8334C55.0701 70.8314 54.3717 70.7546 53.6874 70.6042C40.6596 67.9092 28.6574 61.5904 19.0624 52.375C9.67214 43.1394 3.15949 31.3804 0.312418 18.5209C-0.0232876 16.9182 0.0591078 15.2561 0.551677 13.6944C1.04425 12.1328 1.93041 10.7242 3.12492 9.60421L11.4583 1.58337C11.8839 1.18085 12.3896 0.8726 12.9425 0.678751C13.4953 0.484903 14.0828 0.409809 14.6666 0.458372C15.2719 0.521524 15.8561 0.716524 16.378 1.02966C16.8999 1.3428 17.3468 1.76646 17.6874 2.27087L28.1041 17.6667C28.4947 18.2641 28.6833 18.9711 28.642 19.6836C28.6008 20.3962 28.3319 21.0767 27.8749 21.625L22.6458 27.875C24.7284 32.4843 27.6777 36.6502 31.3333 40.1459C34.9651 43.7684 39.2579 46.6609 43.9791 48.6667L50.4583 43.5209C51.0024 43.0908 51.6646 42.8365 52.3568 42.7919C53.049 42.7472 53.7383 42.9143 54.3333 43.2709L70.0624 53.4375C70.6022 53.7598 71.062 54.2001 71.4075 54.7253C71.753 55.2506 71.9751 55.8472 72.0573 56.4704C72.1395 57.0937 72.0795 57.7275 71.882 58.3243C71.6844 58.9212 71.3544 59.4655 70.9166 59.9167L62.7916 67.9584C61.8687 68.8768 60.7732 69.6036 59.5683 70.097C58.3634 70.5904 57.0728 70.8407 55.7708 70.8334ZM14.3333 4.58337L5.99992 12.6042C5.32794 13.2304 4.83051 14.0206 4.55655 14.8973C4.28259 15.774 4.24154 16.7069 4.43742 17.6042C7.08475 29.6712 13.1702 40.7132 21.9583 49.3959C30.9878 58.0658 42.2824 64.0092 54.5416 66.5417C55.4695 66.7357 56.4311 66.6964 57.3401 66.4273C58.2491 66.1583 59.0771 65.6678 59.7499 65L67.8749 56.9584L52.6874 47.1459L45.7291 52.6875C45.4627 52.8984 45.1488 53.0409 44.8147 53.1026C44.4807 53.1643 44.1366 53.1434 43.8124 53.0417C38.0347 50.9129 32.7988 47.5338 28.4791 43.1459C24.0111 38.9734 20.5429 33.8459 18.3333 28.1459C18.2398 27.8008 18.2367 27.4375 18.3242 27.0909C18.4118 26.7442 18.5871 26.426 18.8333 26.1667L24.4583 19.4375L14.3333 4.58337Z" fill="white"/>
</svg>
