<svg width="20" height="20" viewBox="0 0 20 20" fill="none" xmlns="http://www.w3.org/2000/svg">
<path d="M10 20C4.477 20 0 15.523 0 10C0 4.477 4.477 0 10 0C15.523 0 20 4.477 20 10C20 15.523 15.523 20 10 20ZM10 18C12.1217 18 14.1566 17.1571 15.6569 15.6569C17.1571 14.1566 18 12.1217 18 10C18 7.87827 17.1571 5.84344 15.6569 4.34315C14.1566 2.84285 12.1217 2 10 2C7.87827 2 5.84344 2.84285 4.34315 4.34315C2.84285 5.84344 2 7.87827 2 10C2 12.1217 2.84285 14.1566 4.34315 15.6569C5.84344 17.1571 7.87827 18 10 18ZM10 11.828L13.536 8.293C13.7246 8.11084 13.9772 8.01005 14.2394 8.01233C14.5016 8.0146 14.7524 8.11977 14.9378 8.30518C15.1232 8.49059 15.2284 8.7414 15.2307 9.0036C15.233 9.2658 15.1322 9.5184 14.95 9.707L10.707 13.95C10.5195 14.1375 10.2652 14.2428 10 14.2428C9.73484 14.2428 9.48053 14.1375 9.293 13.95L5.05 9.707C4.86784 9.5184 4.76705 9.2658 4.76933 9.0036C4.7716 8.7414 4.87677 8.49059 5.06218 8.30518C5.24759 8.11977 5.4984 8.0146 5.7606 8.01233C6.0228 8.01005 6.2754 8.11084 6.464 8.293L10 11.828Z" fill="#8D8D8D"/>
</svg>
