<svg width="58" height="58" viewBox="0 0 58 58" fill="none" xmlns="http://www.w3.org/2000/svg">
<path d="M54.9999 25.5L6.6249 1.31247C5.9723 1.01011 5.25443 0.87578 4.53666 0.921703C3.81888 0.967626 3.12399 1.19234 2.51523 1.5754C1.90648 1.95846 1.4032 2.48769 1.05121 3.11492C0.699224 3.74215 0.509703 4.44746 0.499902 5.16664V53.5208C0.493808 54.259 0.678256 54.9864 1.03542 55.6325C1.39258 56.2786 1.91039 56.8217 2.53878 57.2092C3.16717 57.5967 3.88489 57.8155 4.62259 57.8446C5.36028 57.8736 6.09299 57.7119 6.7499 57.375L54.9999 33.1875C55.7146 32.8287 56.3155 32.2782 56.7354 31.5976C57.1553 30.917 57.3777 30.133 57.3777 29.3333C57.3777 28.5336 57.1553 27.7496 56.7354 27.069C56.3155 26.3884 55.7146 25.8379 54.9999 25.4791V25.5Z" fill="white"/>
</svg>
