<svg width="14" height="14" viewBox="0 0 14 14" fill="none" xmlns="http://www.w3.org/2000/svg">
<path d="M3.414 5.65701L7.364 1.70701C7.54616 1.51841 7.64695 1.26581 7.64467 1.00361C7.6424 0.741413 7.53723 0.4906 7.35182 0.305192C7.16641 0.119784 6.9156 0.0146148 6.6534 0.0123364C6.3912 0.010058 6.1386 0.110853 5.95 0.293011L0.292999 5.95001C0.199814 6.04266 0.125865 6.15282 0.0754032 6.27416C0.0249414 6.39549 -0.00103569 6.5256 -0.00103569 6.65701C-0.00103569 6.78842 0.0249414 6.91853 0.0754032 7.03986C0.125865 7.1612 0.199814 7.27136 0.292999 7.36401L5.95 13.021C6.04225 13.1165 6.15259 13.1927 6.2746 13.2451C6.3966 13.2975 6.52782 13.3251 6.6606 13.3263C6.79338 13.3274 6.92506 13.3021 7.04795 13.2518C7.17085 13.2016 7.2825 13.1273 7.3764 13.0334C7.47029 12.9395 7.54454 12.8279 7.59482 12.705C7.6451 12.5821 7.6704 12.4504 7.66925 12.3176C7.6681 12.1848 7.64051 12.0536 7.5881 11.9316C7.53569 11.8096 7.45951 11.6993 7.364 11.607L3.414 7.65701H13C13.2652 7.65701 13.5196 7.55165 13.7071 7.36412C13.8946 7.17658 14 6.92223 14 6.65701C14 6.39179 13.8946 6.13744 13.7071 5.9499C13.5196 5.76237 13.2652 5.65701 13 5.65701H3.414Z" fill="#0085FF"/>
</svg>
