<svg width="18" height="17" viewBox="0 0 18 17" fill="none" xmlns="http://www.w3.org/2000/svg">
<path d="M7.9103 12.6905C9.48365 12.6905 10.9926 12.1227 12.1051 11.1121C13.2176 10.1015 13.8426 8.73074 13.8426 7.30149C13.8426 5.87224 13.2176 4.50153 12.1051 3.4909C10.9926 2.48027 9.48365 1.9125 7.9103 1.9125C6.33694 1.9125 4.82802 2.48027 3.71549 3.4909C2.60296 4.50153 1.97795 5.87224 1.97795 7.30149C1.97795 8.73074 2.60296 10.1015 3.71549 11.1121C4.82802 12.1227 6.33694 12.6905 7.9103 12.6905ZM14.159 11.7079L17.6987 14.9233C17.793 15.0062 17.8683 15.1054 17.92 15.215C17.9717 15.3246 17.9989 15.4425 18 15.5617C18.001 15.681 17.9759 15.7993 17.9261 15.9096C17.8763 16.0199 17.8028 16.1202 17.7099 16.2045C17.617 16.2887 17.5066 16.3553 17.385 16.4004C17.2635 16.4455 17.1333 16.4682 17.002 16.467C16.8707 16.4659 16.741 16.4411 16.6204 16.3939C16.4998 16.3468 16.3908 16.2783 16.2996 16.1924L12.76 12.977C11.1706 14.0978 9.17071 14.6262 7.16752 14.4547C5.16432 14.2831 3.30838 13.4246 1.9775 12.0537C0.646626 10.6829 -0.0591377 8.90287 0.00388472 7.07598C0.0669071 5.2491 0.893977 3.51269 2.31673 2.22026C3.73948 0.927818 5.65096 0.176502 7.66205 0.119252C9.67314 0.0620016 11.6327 0.703122 13.1417 1.9121C14.6507 3.12108 15.5959 4.80703 15.7847 6.62675C15.9735 8.44647 15.3918 10.2632 14.158 11.707L14.159 11.7079Z" fill="#8D8D8D"/>
</svg>
